<svg width="60" height="60" viewBox="0 0 60 60" fill="none" xmlns="http://www.w3.org/2000/svg">
<path d="M47.2431 40.9707H12.7569C12.6039 40.9707 12.4572 40.91 12.349 40.8018C12.2408 40.6936 12.18 40.5468 12.18 40.3938C12.18 40.2408 12.2408 40.0941 12.349 39.9859C12.4572 39.8777 12.6039 39.8169 12.7569 39.8169H46.7077L48.2031 20.7692L37.3846 27.0415C37.2524 27.1186 37.095 27.1401 36.947 27.1011C36.799 27.0622 36.6725 26.966 36.5954 26.8338C36.5183 26.7016 36.4968 26.5442 36.5358 26.3962C36.5747 26.2482 36.6709 26.1217 36.8031 26.0446L48.5954 19.2092C48.6852 19.1551 48.7882 19.1265 48.8931 19.1265C48.998 19.1265 49.1009 19.1551 49.1908 19.2092C49.2801 19.2643 49.3524 19.3431 49.3996 19.4367C49.4469 19.5304 49.4673 19.6354 49.4585 19.74L47.8431 40.4261C47.8347 40.5775 47.7671 40.7196 47.6548 40.8215C47.5425 40.9234 47.3946 40.977 47.2431 40.9707V40.9707Z" fill="black"/>
<path d="M47.2431 40.9706H12.7569C12.6116 40.971 12.4714 40.9166 12.3645 40.8182C12.2575 40.7198 12.1916 40.5847 12.18 40.4398L10.5646 19.7536C10.5558 19.6491 10.5762 19.5441 10.6234 19.4504C10.6707 19.3567 10.743 19.278 10.8323 19.2229C10.9222 19.1687 11.0251 19.1401 11.13 19.1401C11.2349 19.1401 11.3378 19.1687 11.4277 19.2229L33.9277 32.2475C34.0052 32.278 34.0753 32.3249 34.1329 32.3851C34.1906 32.4453 34.2346 32.5172 34.2618 32.596C34.289 32.6747 34.2988 32.7585 34.2906 32.8414C34.2823 32.9243 34.2562 33.0045 34.214 33.0764C34.1719 33.1482 34.1146 33.2101 34.0462 33.2577C33.9779 33.3054 33.9 33.3376 33.8179 33.3523C33.7359 33.3669 33.6516 33.3636 33.571 33.3426C33.4904 33.3216 33.4152 33.2834 33.3508 33.2306L11.7969 20.769L13.2923 39.8167H47.2431C47.3961 39.8167 47.5428 39.8775 47.651 39.9857C47.7592 40.0939 47.82 40.2406 47.82 40.3936C47.82 40.5467 47.7592 40.6934 47.651 40.8016C47.5428 40.9098 47.3961 40.9706 47.2431 40.9706V40.9706Z" fill="black"/>
<path d="M36.9231 27.1199C36.8474 27.1205 36.7723 27.1056 36.7025 27.0763C36.6326 27.0469 36.5695 27.0037 36.5169 26.9491L30 20.4184L23.4692 26.9491C23.4157 27.0029 23.352 27.0455 23.2819 27.0746C23.2118 27.1037 23.1367 27.1186 23.0608 27.1186C22.9849 27.1186 22.9098 27.1037 22.8397 27.0746C22.7696 27.0455 22.7059 27.0029 22.6523 26.9491C22.546 26.8397 22.4866 26.6932 22.4866 26.5407C22.4866 26.3881 22.546 26.2416 22.6523 26.1322L29.5754 19.2091C29.6286 19.1556 29.6919 19.113 29.7616 19.084C29.8313 19.055 29.906 19.04 29.9816 19.04C30.0571 19.04 30.1318 19.055 30.2015 19.084C30.2712 19.113 30.3345 19.1556 30.3877 19.2091L37.3108 26.1322C37.3645 26.1858 37.4071 26.2495 37.4362 26.3196C37.4653 26.3897 37.4803 26.4648 37.4803 26.5407C37.4803 26.6166 37.4653 26.6917 37.4362 26.7618C37.4071 26.8319 37.3645 26.8956 37.3108 26.9491C37.209 27.0548 37.0697 27.1161 36.9231 27.1199V27.1199Z" fill="black"/>
</svg>
